<svg xmlns="http://www.w3.org/2000/svg" width="349" height="1292" viewBox="0 0 349 1292">
  <path fill="#FFFFFF" d="M251.58,1291.6445 L285,1291.6445 L285,160.66 L251.58,160.66 L251.58,1291.6445 Z M314.58,1291.6445 L348,1291.6445 L348,160.66 L314.59,160.66 L314.58,1291.6445 Z M180.53,1291.6445 L218.74,1291.6445 L218.74,160.66 L180.54,160.66 L180.53,1291.6445 Z M62.57,0 C62.57,0 -6.35,13.36 0.48,91 C6.6,160.53 77.84,190.15 122.65,153.37 C160.01,122.66 135.87,69.29 99.22,70.56 C69.7,71.56 63.95,77.46 65.64,91 C66.64,99.19 138.92,85.89 103.3,127.8 C84.14,150.33 34.08,128.8 37.15,84.8 C40.22,40.8 74.8,30.63 100.25,29.63 C117.48,28.92 215.53,29.18 277,29.4 C277.75,29.63 287.31,29.57 302.51,29.5 C317.71,29.43 327.27,29.63 327.27,29.63 C334.59,29.4 341.63,29.4 348.91,29.32 L348.91,0 L62.57,0 Z M162.5,141.71 L348.9,141.71 L348.9,100.83 L162.49,100.83 L162.5,141.71 Z M159.29,93.07 L348.9,93.07 L348.9,49.07 L128.35,49.07 L159.29,93.07 Z" opacity=".1"/>
</svg>
